<svg width="175.36mm" height="92.539mm" version="1.1" viewBox="0 0 175.36 92.539" xmlns="http://www.w3.org/2000/svg">
  <g transform="translate(-13.573 -11.996)">
    <path d="m83.213 84.294h5.2917v-64.758h-54.692v5.2917" style="fill:#fff;opacity:.2;stroke-width:2.381;stroke:#00466e"/>
    <path d="m89.563 77.944h5.2917v-64.758h-54.692v5.2917" style="fill:#fff;opacity:.05;stroke-width:2.381;stroke:#00466e"/>
    <path d="m76.863 90.644h5.2917v-64.758h-54.692v5.2917" style="fill:#fff;opacity:.5;stroke-width:2.381;stroke:#00466e"/>
    <path d="m70.513 96.994h5.2917v-64.758h-54.692v5.2917" style="fill:#fff;opacity:.8;stroke-width:2.381;stroke:#00466e"/>
    <rect x="14.763" y="38.586" width="54.692" height="64.758" style="fill:#fff;stroke-width:2.381;stroke:#00466e"/>
    <path d="m33.553 67.144c-1.8838 0-3.302 1.3758-3.302 3.8312 0 2.5082 1.3441 3.8629 3.3549 3.8629 1.016 0 1.8203-0.45508 2.2966-0.94191l-0.78316-1.016c-0.42333 0.32808-0.84666 0.61383-1.4287 0.61383-0.97366 0-1.6192-0.75141-1.6192-2.5188 0-1.7992 0.65616-2.5506 1.5875-2.5506 0.508 0 0.92075 0.1905 1.3123 0.52916l0.84666-1.0054c-0.60325-0.508-1.27-0.80433-2.2648-0.80433zm7.0273 3.6301c0.67733-0.15875 1.3441-0.64558 1.3441-1.5769 0-1.3758-1.2065-1.8732-3.175-1.8732h-2.0743v7.3342h2.3601c1.8415 0 3.1962-0.46566 3.1962-2.1378 0-1.1853-0.83608-1.5875-1.651-1.7462zm-1.6616-2.2225c0.83608 0 1.2382 0.20108 1.2382 0.81491 0 0.61383-0.381 0.889-1.1007 0.889h-0.64558v-1.7039zm0.127 4.8472h-0.635v-1.9897h0.762c0.75142 0 1.27 0.27517 1.27 1.016 0 0.80433-0.58208 0.97366-1.397 0.97366zm7.1226-6.2547c-1.8838 0-3.302 1.3758-3.302 3.8312 0 2.5082 1.3441 3.8629 3.3549 3.8629 1.016 0 1.8203-0.45508 2.2966-0.94191l-0.78316-1.016c-0.42333 0.32808-0.84666 0.61383-1.4287 0.61383-0.97366 0-1.6192-0.75141-1.6192-2.5188 0-1.7992 0.65616-2.5506 1.5875-2.5506 0.508 0 0.92075 0.1905 1.3123 0.52916l0.84666-1.0054c-0.60325-0.508-1.27-0.80433-2.2648-0.80433zm8.1386 0.17992h-5.6091v1.3335h1.8944v6.0007h1.7357v-6.0007h1.8097z" style="fill:#005780;stroke-width:.26458" aria-label="CBCT"/>
    <rect x="133.05" y="38.586" width="54.692" height="64.758" style="fill:#fff;stroke-width:2.381;stroke:#00466e"/>
    <path d="m152.65 67.473c-1.8838 0-3.302 1.3758-3.302 3.8312 0 2.5082 1.3441 3.8629 3.3549 3.8629 1.016 0 1.8203-0.45508 2.2966-0.94191l-0.78317-1.016c-0.42333 0.32808-0.84666 0.61383-1.4287 0.61383-0.97367 0-1.6192-0.75141-1.6192-2.5188 0-1.7992 0.65617-2.5506 1.5875-2.5506 0.508 0 0.92075 0.1905 1.3123 0.52916l0.84666-1.0054c-0.60325-0.508-1.27-0.80433-2.2648-0.80433zm7.8846 4.5932c0-1.8203-0.98425-2.8787-2.5929-2.8787-1.7039 0-2.6247 1.3335-2.6247 3.0162 0 1.7568 0.9525 2.9633 2.8257 2.9633 0.91017 0 1.6298-0.33867 2.1908-0.78316l-0.68792-0.93133c-0.48683 0.33867-0.88899 0.49742-1.3441 0.49742-0.68791 0-1.1642-0.27517-1.27-1.2806h3.4713c0.0212-0.16933 0.0317-0.42333 0.0317-0.60325zm-1.6404-0.40217h-1.8732c0.0847-1.016 0.40217-1.3652 0.96308-1.3652 0.66675 0 0.89958 0.52916 0.91017 1.2912zm5.7467-2.4765c-0.51858 0-1.1218 0.22225-1.5875 0.80433l-0.0847-0.62442h-1.4711v7.9692l1.6722-0.17992v-2.5823c0.34925 0.40216 0.81491 0.59266 1.3652 0.59266 1.3864 0 2.2331-1.27 2.2331-3.0057 0-1.8203-0.64558-2.9739-2.1272-2.9739zm-0.61383 4.7519c-0.34925 0-0.62442-0.15875-0.85725-0.49742v-2.3707c0.24342-0.41275 0.58208-0.65616 0.94191-0.65616 0.58209 0 0.92075 0.37042 0.92075 1.7674 0 1.2594-0.381 1.7568-1.0054 1.7568zm7.0802-4.7519c-0.65617 0-1.1642 0.26458-1.6192 0.77258v-2.9951l-1.6722 0.16933v7.8528h1.6722v-3.8523c0.29633-0.45508 0.60325-0.71966 0.97366-0.71966 0.3175 0 0.52917 0.15875 0.52917 0.75141v3.8206h1.6722v-4.1063c0-1.0689-0.58208-1.6933-1.5557-1.6933z" style="fill:#005780;stroke-width:.26458" aria-label="Ceph"/>
    <path d="m85.331 70.965h40.945l-4.4576-3.821m0 7.6481 4.4576-3.8272h-40.945" style="fill:none;stroke-linecap:round;stroke-linejoin:round;stroke-width:1.565;stroke:#00466e"/>
  </g>
</svg>
